<svg width="1750" height="1750" viewBox="0 0 1750 1750" fill="none" xmlns="http://www.w3.org/2000/svg">
<g clip-path="url(#clip0_750_235)">
<rect width="1750" height="1750" rx="300" fill="#0A0A0A"/>
<line x1="279.159" y1="2.53916e-07" x2="279.159" y2="1750" stroke="#737373" stroke-width="4.00229" stroke-dasharray="100.06 100.06"/>
<line x1="1474.84" y1="2.53916e-07" x2="1474.84" y2="1750" stroke="#737373" stroke-width="4.00229" stroke-dasharray="100.06 100.06"/>
<line y1="292.167" x2="1750" y2="292.167" stroke="#737373" stroke-width="4.00229" stroke-dasharray="100.06 100.06"/>
<line y1="1452.83" x2="1750" y2="1452.83" stroke="#737373" stroke-width="4.00229" stroke-dasharray="100.06 100.06"/>
<path d="M1314.13 789.046C1314.13 761.412 1300.97 735.532 1279.04 718.864L928.134 455.682C912.949 444.293 894.479 438.137 875.498 438.137C856.516 438.137 838.047 444.293 822.861 455.682L471.952 718.864C461.057 727.036 452.214 737.632 446.123 749.813C440.032 761.994 436.861 775.427 436.861 789.046M1314.13 789.046V1227.68C1314.13 1250.95 1304.89 1273.26 1288.44 1289.71C1271.99 1306.17 1249.67 1315.41 1226.41 1315.41H524.589C501.322 1315.41 479.008 1306.17 462.556 1289.71C446.104 1273.26 436.861 1250.95 436.861 1227.68V789.046M1314.13 789.046L920.677 1039.07C907.135 1047.55 891.478 1052.05 875.498 1052.05C859.517 1052.05 843.86 1047.55 830.318 1039.07L436.861 789.046" stroke="#FAFAFA" stroke-width="118.519" stroke-linecap="round" stroke-linejoin="round"/>
</g>
<defs>
<clipPath id="clip0_750_235">
<rect width="1750" height="1750" rx="300" fill="white"/>
</clipPath>
</defs>
</svg>
