<svg width="1750" height="1750" viewBox="0 0 1750 1750" fill="none" xmlns="http://www.w3.org/2000/svg">
<rect width="1750" height="1750" fill="#0A0A0A"/>
<path d="M1313.63 789.545C1313.63 761.911 1300.47 736.032 1278.54 719.363L927.633 456.182C912.448 444.793 893.978 438.636 874.997 438.636C856.015 438.636 837.546 444.793 822.36 456.182L471.451 719.363C460.556 727.535 451.713 738.131 445.622 750.312C439.531 762.494 436.36 775.926 436.36 789.545M1313.63 789.545V1228.18C1313.63 1251.45 1304.39 1273.76 1287.94 1290.21C1271.49 1306.67 1249.17 1315.91 1225.91 1315.91H524.088C500.821 1315.91 478.507 1306.67 462.055 1290.21C445.603 1273.76 436.36 1251.45 436.36 1228.18V789.545M1313.63 789.545L920.176 1039.57C906.634 1048.05 890.977 1052.55 874.997 1052.55C859.016 1052.55 843.359 1048.05 829.817 1039.57L436.36 789.545" stroke="#FAFAFA" stroke-width="118.519" stroke-linecap="round" stroke-linejoin="round"/>
</svg>
