<svg width="5250" height="1750" viewBox="0 0 5250 1750" fill="none" xmlns="http://www.w3.org/2000/svg">
<g clip-path="url(#clip0_750_255)">
<rect width="5250" height="1750" fill="#0A0A0A"/>
<line x1="806" y1="8.74228e-08" x2="806" y2="1750" stroke="#737373" stroke-width="4" stroke-dasharray="100 100"/>
<line x1="4275" y1="8.74228e-08" x2="4275" y2="1750" stroke="#737373" stroke-width="4" stroke-dasharray="100 100"/>
<line y1="292" x2="5250" y2="292" stroke="#737373" stroke-width="4" stroke-dasharray="100 100"/>
<line y1="1452" x2="5250" y2="1452" stroke="#737373" stroke-width="4" stroke-dasharray="100 100"/>
<path d="M1668 1085.53V771.232H1713.66L1715.44 850.697L1708.33 848.324C1711.88 830.929 1718.01 816.104 1726.71 803.848C1735.8 791.197 1746.87 781.511 1759.92 774.79C1772.96 767.674 1787.39 764.116 1803.21 764.116C1830.49 764.116 1852.63 771.627 1869.63 786.65C1887.02 801.674 1897.89 822.627 1902.24 849.51L1892.75 848.917C1895.92 830.732 1901.65 815.511 1909.95 803.255C1918.65 790.604 1929.72 780.918 1943.16 774.197C1956.6 767.476 1972.02 764.116 1989.42 764.116C2011.95 764.116 2030.93 768.86 2046.35 778.348C2061.77 787.441 2073.43 800.883 2081.33 818.673C2089.24 836.464 2093.2 858.01 2093.2 883.313V1085.53H2043.38V893.987C2043.38 865.522 2037.85 844.173 2026.78 829.941C2015.71 815.313 1999.3 807.999 1977.56 807.999C1962.93 807.999 1950.08 811.557 1939.01 818.673C1928.34 825.79 1920.03 836.069 1914.1 849.51C1908.17 862.557 1905.21 878.568 1905.21 897.545V1085.53H1855.39V897.545C1855.39 869.476 1850.45 847.534 1840.57 831.72C1830.69 815.906 1814.08 807.999 1790.76 807.999C1776.13 807.999 1763.28 811.557 1752.21 818.673C1741.53 825.79 1733.03 836.069 1726.71 849.51C1720.78 862.952 1717.81 878.964 1717.81 897.545V1085.53H1668Z" fill="#FAFAFA"/>
<path d="M2249.27 1092.65C2216.85 1092.65 2190.96 1085.14 2171.58 1070.11C2152.61 1055.09 2143.12 1034.14 2143.12 1007.25C2143.12 980.37 2151.03 959.219 2166.84 943.801C2182.65 928.382 2207.76 917.51 2242.15 911.185L2353.64 890.429C2353.64 863.941 2347.32 844.173 2334.67 831.127C2322.41 818.08 2303.83 811.557 2278.92 811.557C2257.18 811.557 2239.98 816.499 2227.33 826.383C2214.68 835.871 2205.98 849.708 2201.24 867.894L2148.46 863.743C2154.39 834.092 2168.62 810.174 2191.15 791.988C2214.08 773.406 2243.34 764.116 2278.92 764.116C2319.25 764.116 2350.08 775.581 2371.43 798.511C2392.78 821.046 2403.46 852.278 2403.46 892.208V1022.08C2403.46 1029.2 2404.64 1034.34 2407.01 1037.5C2409.78 1040.27 2414.13 1041.65 2420.06 1041.65H2432.51V1085.53C2430.93 1085.93 2428.36 1086.13 2424.8 1086.13C2421.25 1086.52 2417.49 1086.72 2413.54 1086.72C2399.3 1086.72 2387.64 1084.54 2378.55 1080.2C2369.85 1075.45 2363.53 1068.33 2359.57 1058.85C2355.62 1048.96 2353.64 1036.11 2353.64 1020.3L2359.57 1021.49C2356.8 1034.93 2350.08 1047.18 2339.41 1058.25C2328.74 1068.93 2315.49 1077.43 2299.68 1083.75C2283.86 1089.68 2267.06 1092.65 2249.27 1092.65ZM2254.01 1048.77C2274.97 1048.77 2292.76 1044.81 2307.39 1036.9C2322.41 1028.6 2333.87 1017.53 2341.78 1003.7C2349.69 989.463 2353.64 973.649 2353.64 956.254V933.719L2251.64 952.696C2230.29 956.649 2215.47 962.777 2207.17 971.08C2199.26 978.987 2195.31 989.463 2195.31 1002.51C2195.31 1017.14 2200.45 1028.6 2210.72 1036.9C2221.4 1044.81 2235.83 1048.77 2254.01 1048.77Z" fill="#FAFAFA"/>
<path d="M2468.67 1085.53V771.232H2518.48V1085.53H2468.67ZM2467.48 722.011V663.895H2519.67V722.011H2467.48Z" fill="#FAFAFA"/>
<path d="M2651.54 1085.53C2633.36 1085.53 2618.53 1080.79 2607.07 1071.3C2595.6 1061.81 2589.87 1046.79 2589.87 1026.23V664.488H2639.68V1022.08C2639.68 1028.4 2641.26 1033.35 2644.43 1036.9C2647.98 1040.07 2652.93 1041.65 2659.25 1041.65H2686.53V1085.53H2651.54Z" fill="#FAFAFA"/>
<path d="M2879.03 1095.02C2845.03 1095.02 2815.57 1086.13 2790.67 1068.33C2765.76 1050.54 2746.39 1025.24 2732.55 992.428C2719.11 959.615 2712.39 920.673 2712.39 875.603C2712.39 830.534 2719.11 791.592 2732.55 758.778C2746.39 725.569 2765.76 700.069 2790.67 682.279C2815.57 664.093 2845.03 655 2879.03 655C2913.42 655 2943.07 664.093 2967.98 682.279C2992.89 700.069 3012.06 725.372 3025.5 758.185C3039.34 790.999 3046.26 830.139 3046.26 875.603C3046.26 920.673 3039.34 959.615 3025.5 992.428C3012.06 1025.24 2992.89 1050.54 2967.98 1068.33C2943.07 1086.13 2913.42 1095.02 2879.03 1095.02ZM2879.03 1045.21C2915.4 1045.21 2943.47 1030.58 2963.23 1001.32C2983 971.673 2992.89 929.766 2992.89 875.603C2992.89 839.231 2988.34 808.394 2979.25 783.092C2970.55 757.395 2957.7 738.023 2940.7 724.976C2924.09 711.535 2903.54 704.814 2879.03 704.814C2854.91 704.814 2834.35 711.535 2817.35 724.976C2800.75 738.023 2787.9 757.395 2778.8 783.092C2770.11 808.394 2765.76 839.231 2765.76 875.603C2765.76 929.766 2775.64 971.673 2795.41 1001.32C2815.18 1030.58 2843.05 1045.21 2879.03 1045.21Z" fill="#FAFAFA"/>
<path d="M3072.68 1085.53V1018.52H3139.69V1085.53H3072.68Z" fill="#FAFAFA"/>
<path d="M3195.54 1085.53V771.232H3245.35V1085.53H3195.54ZM3194.35 722.011V663.895H3246.54V722.011H3194.35Z" fill="#FAFAFA"/>
<path d="M3439.49 1092.65C3410.63 1092.65 3385.33 1085.93 3363.58 1072.49C3341.84 1059.04 3325.04 1040.07 3313.18 1015.56C3301.32 990.649 3295.39 961.591 3295.39 928.382C3295.39 894.778 3301.32 865.72 3313.18 841.208C3325.04 816.697 3341.84 797.72 3363.58 784.278C3385.33 770.837 3410.63 764.116 3439.49 764.116C3468.35 764.116 3493.45 770.837 3514.8 784.278C3536.55 797.72 3553.35 816.697 3565.21 841.208C3577.07 865.72 3583 894.778 3583 928.382C3583 961.591 3577.07 990.649 3565.21 1015.56C3553.35 1040.07 3536.55 1059.04 3514.8 1072.49C3493.45 1085.93 3468.35 1092.65 3439.49 1092.65ZM3439.49 1045.21C3468.35 1045.21 3490.69 1034.93 3506.5 1014.37C3522.71 993.417 3530.81 964.754 3530.81 928.382C3530.81 892.01 3522.71 863.545 3506.5 842.987C3490.69 822.034 3468.35 811.557 3439.49 811.557C3410.63 811.557 3388.09 822.034 3371.88 842.987C3355.68 863.545 3347.57 892.01 3347.57 928.382C3347.57 964.754 3355.68 993.417 3371.88 1014.37C3388.09 1034.93 3410.63 1045.21 3439.49 1045.21Z" fill="#FAFAFA"/>
</g>
<defs>
<clipPath id="clip0_750_255">
<rect width="5250" height="1750" fill="white"/>
</clipPath>
</defs>
</svg>
