<svg width="5250" height="1750" viewBox="0 0 5250 1750" fill="none" xmlns="http://www.w3.org/2000/svg">
<g clip-path="url(#clip0_748_224)">
<rect width="5250" height="1750" fill="#0A0A0A"/>
<line x1="806" y1="8.74228e-08" x2="806" y2="1750" stroke="#737373" stroke-width="4" stroke-dasharray="100 100"/>
<line x1="4275" y1="8.74228e-08" x2="4275" y2="1750" stroke="#737373" stroke-width="4" stroke-dasharray="100 100"/>
<line y1="292" x2="5250" y2="292" stroke="#737373" stroke-width="4" stroke-dasharray="100 100"/>
<line y1="1452" x2="5250" y2="1452" stroke="#737373" stroke-width="4" stroke-dasharray="100 100"/>
<path d="M1830.5 837.41C1830.5 825.251 1824.71 813.864 1815.06 806.53L1660.66 690.73C1653.98 685.719 1645.85 683.01 1637.5 683.01C1629.15 683.01 1621.02 685.719 1614.34 690.73L1459.94 806.53C1455.15 810.126 1451.26 814.788 1448.58 820.148C1445.9 825.508 1444.5 831.418 1444.5 837.41M1830.5 837.41V1030.41C1830.5 1040.65 1826.43 1050.47 1819.19 1057.7C1811.96 1064.94 1802.14 1069.01 1791.9 1069.01H1483.1C1472.86 1069.01 1463.04 1064.94 1455.81 1057.7C1448.57 1050.47 1444.5 1040.65 1444.5 1030.41V837.41M1830.5 837.41L1657.38 947.42C1651.42 951.153 1644.53 953.133 1637.5 953.133C1630.47 953.133 1623.58 951.153 1617.62 947.42L1444.5 837.41" stroke="#FAFAFA" stroke-width="45" stroke-linecap="round" stroke-linejoin="round"/>
<path d="M1917.5 1085.53V771.232H1963.16L1964.94 850.697L1957.83 848.324C1961.38 830.929 1967.51 816.104 1976.21 803.848C1985.3 791.197 1996.37 781.511 2009.42 774.79C2022.46 767.674 2036.89 764.116 2052.71 764.116C2079.99 764.116 2102.13 771.627 2119.13 786.65C2136.52 801.674 2147.39 822.627 2151.74 849.51L2142.25 848.917C2145.42 830.732 2151.15 815.511 2159.45 803.255C2168.15 790.604 2179.22 780.918 2192.66 774.197C2206.1 767.476 2221.52 764.116 2238.92 764.116C2261.45 764.116 2280.43 768.86 2295.85 778.348C2311.27 787.441 2322.93 800.883 2330.83 818.673C2338.74 836.464 2342.7 858.01 2342.7 883.313V1085.53H2292.88V893.987C2292.88 865.522 2287.35 844.173 2276.28 829.941C2265.21 815.313 2248.8 807.999 2227.06 807.999C2212.43 807.999 2199.58 811.557 2188.51 818.673C2177.84 825.79 2169.53 836.069 2163.6 849.51C2157.67 862.557 2154.71 878.568 2154.71 897.545V1085.53H2104.89V897.545C2104.89 869.476 2099.95 847.534 2090.07 831.72C2080.19 815.906 2063.58 807.999 2040.26 807.999C2025.63 807.999 2012.78 811.557 2001.71 818.673C1991.03 825.79 1982.53 836.069 1976.21 849.51C1970.28 862.952 1967.31 878.964 1967.31 897.545V1085.53H1917.5Z" fill="#FAFAFA"/>
<path d="M2498.77 1092.65C2466.35 1092.65 2440.46 1085.14 2421.08 1070.11C2402.11 1055.09 2392.62 1034.14 2392.62 1007.25C2392.62 980.37 2400.53 959.219 2416.34 943.801C2432.15 928.382 2457.26 917.51 2491.65 911.185L2603.14 890.429C2603.14 863.941 2596.82 844.173 2584.17 831.127C2571.91 818.08 2553.33 811.557 2528.42 811.557C2506.68 811.557 2489.48 816.499 2476.83 826.383C2464.18 835.871 2455.48 849.708 2450.74 867.894L2397.96 863.743C2403.89 834.092 2418.12 810.174 2440.65 791.988C2463.58 773.406 2492.84 764.116 2528.42 764.116C2568.75 764.116 2599.58 775.581 2620.93 798.511C2642.28 821.046 2652.96 852.278 2652.96 892.208V1022.08C2652.96 1029.2 2654.14 1034.34 2656.51 1037.5C2659.28 1040.27 2663.63 1041.65 2669.56 1041.65H2682.01V1085.53C2680.43 1085.93 2677.86 1086.13 2674.3 1086.13C2670.75 1086.52 2666.99 1086.72 2663.04 1086.72C2648.8 1086.72 2637.14 1084.54 2628.05 1080.2C2619.35 1075.45 2613.03 1068.33 2609.07 1058.85C2605.12 1048.96 2603.14 1036.11 2603.14 1020.3L2609.07 1021.49C2606.3 1034.93 2599.58 1047.18 2588.91 1058.25C2578.24 1068.93 2564.99 1077.43 2549.18 1083.75C2533.36 1089.68 2516.56 1092.65 2498.77 1092.65ZM2503.51 1048.77C2524.47 1048.77 2542.26 1044.81 2556.89 1036.9C2571.91 1028.6 2583.37 1017.53 2591.28 1003.7C2599.19 989.463 2603.14 973.649 2603.14 956.254V933.719L2501.14 952.696C2479.79 956.649 2464.97 962.777 2456.67 971.08C2448.76 978.987 2444.81 989.463 2444.81 1002.51C2444.81 1017.14 2449.95 1028.6 2460.22 1036.9C2470.9 1044.81 2485.33 1048.77 2503.51 1048.77Z" fill="#FAFAFA"/>
<path d="M2718.17 1085.53V771.232H2767.98V1085.53H2718.17ZM2716.98 722.011V663.895H2769.17V722.011H2716.98Z" fill="#FAFAFA"/>
<path d="M2901.04 1085.53C2882.86 1085.53 2868.03 1080.79 2856.57 1071.3C2845.1 1061.81 2839.37 1046.79 2839.37 1026.23V664.488H2889.18V1022.08C2889.18 1028.4 2890.76 1033.35 2893.93 1036.9C2897.48 1040.07 2902.43 1041.65 2908.75 1041.65H2936.03V1085.53H2901.04Z" fill="#FAFAFA"/>
<path d="M3128.53 1095.02C3094.53 1095.02 3065.07 1086.13 3040.17 1068.33C3015.26 1050.54 2995.89 1025.24 2982.05 992.428C2968.61 959.615 2961.89 920.673 2961.89 875.603C2961.89 830.534 2968.61 791.592 2982.05 758.778C2995.89 725.569 3015.26 700.069 3040.17 682.279C3065.07 664.093 3094.53 655 3128.53 655C3162.92 655 3192.57 664.093 3217.48 682.279C3242.39 700.069 3261.56 725.372 3275 758.185C3288.84 790.999 3295.76 830.139 3295.76 875.603C3295.76 920.673 3288.84 959.615 3275 992.428C3261.56 1025.24 3242.39 1050.54 3217.48 1068.33C3192.57 1086.13 3162.92 1095.02 3128.53 1095.02ZM3128.53 1045.21C3164.9 1045.21 3192.97 1030.58 3212.73 1001.32C3232.5 971.673 3242.39 929.766 3242.39 875.603C3242.39 839.231 3237.84 808.394 3228.75 783.092C3220.05 757.395 3207.2 738.023 3190.2 724.976C3173.59 711.535 3153.04 704.814 3128.53 704.814C3104.41 704.814 3083.85 711.535 3066.85 724.976C3050.25 738.023 3037.4 757.395 3028.3 783.092C3019.61 808.394 3015.26 839.231 3015.26 875.603C3015.26 929.766 3025.14 971.673 3044.91 1001.32C3064.68 1030.58 3092.55 1045.21 3128.53 1045.21Z" fill="#FAFAFA"/>
<path d="M3322.18 1085.53V1018.52H3389.19V1085.53H3322.18Z" fill="#FAFAFA"/>
<path d="M3445.04 1085.53V771.232H3494.85V1085.53H3445.04ZM3443.85 722.011V663.895H3496.04V722.011H3443.85Z" fill="#FAFAFA"/>
<path d="M3688.99 1092.65C3660.13 1092.65 3634.83 1085.93 3613.08 1072.49C3591.34 1059.04 3574.54 1040.07 3562.68 1015.56C3550.82 990.649 3544.89 961.591 3544.89 928.382C3544.89 894.778 3550.82 865.72 3562.68 841.208C3574.54 816.697 3591.34 797.72 3613.08 784.278C3634.83 770.837 3660.13 764.116 3688.99 764.116C3717.85 764.116 3742.95 770.837 3764.3 784.278C3786.05 797.72 3802.85 816.697 3814.71 841.208C3826.57 865.72 3832.5 894.778 3832.5 928.382C3832.5 961.591 3826.57 990.649 3814.71 1015.56C3802.85 1040.07 3786.05 1059.04 3764.3 1072.49C3742.95 1085.93 3717.85 1092.65 3688.99 1092.65ZM3688.99 1045.21C3717.85 1045.21 3740.19 1034.93 3756 1014.37C3772.21 993.417 3780.31 964.754 3780.31 928.382C3780.31 892.01 3772.21 863.545 3756 842.987C3740.19 822.034 3717.85 811.557 3688.99 811.557C3660.13 811.557 3637.59 822.034 3621.38 842.987C3605.18 863.545 3597.07 892.01 3597.07 928.382C3597.07 964.754 3605.18 993.417 3621.38 1014.37C3637.59 1034.93 3660.13 1045.21 3688.99 1045.21Z" fill="#FAFAFA"/>
</g>
<defs>
<clipPath id="clip0_748_224">
<rect width="5250" height="1750" fill="white"/>
</clipPath>
</defs>
</svg>
