<svg width="515" height="344" viewBox="0 0 515 344" fill="none" xmlns="http://www.w3.org/2000/svg">
<g clip-path="url(#clip0_19_2)">
<g filter="url(#filter0_dddd_19_2)">
<rect width="515" height="343.333" rx="28.6111" transform="matrix(1 0 0 -1 0 343.333)" fill="url(#paint0_linear_19_2)"/>
<rect x="-1.78819" y="1.78819" width="518.576" height="346.91" rx="30.3993" transform="matrix(1 0 0 -1 0 346.91)" stroke="url(#paint1_linear_19_2)" stroke-width="3.57639"/>
</g>
<mask id="mask0_19_2" style="mask-type:alpha" maskUnits="userSpaceOnUse" x="0" y="0" width="515" height="344">
<rect width="515" height="343.333" rx="28.6111" fill="black"/>
</mask>
<g mask="url(#mask0_19_2)">
<g opacity="0.4">
<g filter="url(#filter1_f_19_2)">
<path d="M10.7291 343.333L504.271 343.333L288.096 149.09C277.281 139.371 271.873 134.512 265.758 132.668C260.372 131.045 254.627 131.045 249.242 132.668C243.127 134.512 237.719 139.371 226.904 149.09L10.7291 343.333Z" fill="#334155" fill-opacity="0.4"/>
</g>
<g filter="url(#filter2_f_19_2)">
<path d="M39.3403 343.333L475.66 343.333L291.576 138.125C279.779 124.975 273.881 118.399 266.929 115.973C260.824 113.842 254.176 113.842 248.071 115.973C241.119 118.399 235.221 124.975 223.424 138.125L39.3403 343.333Z" fill="#334155" fill-opacity="0.2"/>
</g>
<g filter="url(#filter3_f_19_2)">
<path d="M10.7291 343.333L504.271 343.333L290.981 114.588C279.343 102.107 273.524 95.8661 266.721 93.5498C260.742 91.5144 254.258 91.5144 248.279 93.5498C241.476 95.8661 235.657 102.107 224.019 114.588L10.7291 343.333Z" fill="#334155" fill-opacity="0.1"/>
</g>
</g>
<g filter="url(#filter4_i_19_2)">
<path d="M0 343.334L515 343.334L287.371 147.32C276.773 138.194 271.474 133.631 265.527 131.892C260.285 130.36 254.715 130.36 249.473 131.892C243.526 133.631 238.227 138.194 227.629 147.32L0 343.334Z" fill="url(#paint2_linear_19_2)"/>
</g>
<path d="M5.36462 336.18L227.654 145.422C238.245 136.333 243.54 131.788 249.48 130.059C254.714 128.535 260.276 128.538 265.509 130.068C271.446 131.804 276.736 136.355 287.317 145.456L513.212 339.757" stroke="#475569" stroke-opacity="0.06" stroke-width="3.57639"/>
<g style="mix-blend-mode:multiply" opacity="0.7">
<g filter="url(#filter5_f_19_2)">
<path d="M10.7291 0L504.271 0L288.096 194.244C277.281 203.962 271.873 208.822 265.758 210.665C260.372 212.289 254.627 212.289 249.242 210.665C243.127 208.822 237.719 203.962 226.904 194.244L10.7291 0Z" fill="#334155" fill-opacity="0.4"/>
</g>
<g filter="url(#filter6_f_19_2)">
<path d="M39.3403 0L475.66 0L291.576 205.208C279.779 218.358 273.881 224.934 266.929 227.36C260.824 229.492 254.176 229.492 248.071 227.36C241.119 224.934 235.221 218.358 223.424 205.208L39.3403 0Z" fill="#334155" fill-opacity="0.2"/>
</g>
<g filter="url(#filter7_f_19_2)">
<path d="M10.7291 0L504.271 0L290.981 228.746C279.343 241.227 273.524 247.467 266.721 249.783C260.742 251.819 254.258 251.819 248.279 249.783C241.476 247.467 235.657 241.227 224.019 228.745L10.7291 0Z" fill="#334155" fill-opacity="0.1"/>
</g>
<g filter="url(#filter8_f_19_2)">
<path d="M28.6111 0L486.389 0L273.337 233.026C264.829 242.331 250.171 242.331 241.663 233.026L28.6111 0Z" fill="#334155" fill-opacity="0.05"/>
</g>
<g filter="url(#filter9_f_19_2)">
<path d="M7.15283 -3.57642L507.847 -3.57642L272.101 215.33C263.868 222.976 251.132 222.976 242.899 215.33L7.15283 -3.57642Z" fill="#334155" fill-opacity="0.1"/>
</g>
</g>
<path d="M5.36462 7.15275L227.654 197.911C238.245 207 243.54 211.545 249.48 213.274C254.714 214.798 260.276 214.795 265.509 213.265C271.446 211.529 276.736 206.978 287.317 197.877L513.212 3.57636" stroke="#475569" stroke-opacity="0.06" stroke-width="3.57639"/>
<g filter="url(#filter10_i_19_2)">
<path d="M0 0L515 0L287.371 196.014C276.773 205.14 271.474 209.703 265.527 211.441C260.285 212.973 254.715 212.973 249.473 211.441C243.526 209.703 238.227 205.14 227.629 196.014L0 0Z" fill="url(#paint3_linear_19_2)"/>
</g>
<g filter="url(#filter11_f_19_2)">
<rect width="515" height="343.333" stroke="url(#paint4_linear_19_2)" stroke-width="57.2222"/>
</g>
<rect x="1.78819" y="1.78819" width="511.424" height="339.757" rx="26.8229" stroke="white" stroke-opacity="0.4" stroke-width="3.57639"/>
<g filter="url(#filter12_i_19_2)">
<path d="M196.27 41.89L198.93 36.94L199.73 37.01L197.07 41.96L196.27 41.89ZM198 43.16C197.473 43.16 197.02 43.01 196.64 42.71C196.26 42.41 195.967 41.9833 195.76 41.43C195.56 40.8767 195.46 40.22 195.46 39.46C195.46 38.6933 195.56 38.0333 195.76 37.48C195.967 36.9267 196.26 36.5 196.64 36.2C197.02 35.8933 197.473 35.74 198 35.74C198.533 35.74 198.987 35.8933 199.36 36.2C199.74 36.5 200.03 36.9267 200.23 37.48C200.437 38.0333 200.54 38.6933 200.54 39.46C200.54 40.22 200.437 40.8767 200.23 41.43C200.03 41.9833 199.74 42.41 199.36 42.71C198.987 43.01 198.533 43.16 198 43.16ZM198 42.04C198.267 42.04 198.493 41.9433 198.68 41.75C198.867 41.55 199.01 41.2567 199.11 40.87C199.21 40.4833 199.26 40.0133 199.26 39.46C199.26 38.8933 199.21 38.42 199.11 38.04C199.01 37.6533 198.867 37.36 198.68 37.16C198.493 36.96 198.267 36.86 198 36.86C197.74 36.86 197.513 36.96 197.32 37.16C197.133 37.36 196.99 37.6533 196.89 38.04C196.79 38.42 196.74 38.8933 196.74 39.46C196.74 40.0133 196.79 40.4833 196.89 40.87C196.99 41.2567 197.133 41.55 197.32 41.75C197.513 41.9433 197.74 42.04 198 42.04ZM207.852 43V35.9H212.252V37.04H209.092V38.89H212.132V39.99H209.092V41.86H212.332V43H207.852ZM213.308 43V37.66H214.298L214.348 38.88L214.228 38.85C214.308 38.4233 214.445 38.1 214.638 37.88C214.832 37.6533 215.075 37.54 215.368 37.54C215.688 37.54 215.928 37.6533 216.088 37.88C216.248 38.1067 216.352 38.4467 216.398 38.9H216.268C216.335 38.46 216.475 38.1233 216.688 37.89C216.908 37.6567 217.178 37.54 217.498 37.54C217.905 37.54 218.202 37.6833 218.388 37.97C218.575 38.2567 218.668 38.7133 218.668 39.34V43H217.538V39.57C217.538 39.1767 217.502 38.91 217.428 38.77C217.355 38.6233 217.238 38.55 217.078 38.55C216.972 38.55 216.875 38.5867 216.788 38.66C216.708 38.7267 216.642 38.8367 216.588 38.99C216.542 39.1433 216.518 39.34 216.518 39.58V43H215.458V39.57C215.458 39.1967 215.422 38.9333 215.348 38.78C215.275 38.6267 215.155 38.55 214.988 38.55C214.875 38.55 214.778 38.5867 214.698 38.66C214.618 38.7267 214.555 38.8367 214.508 38.99C214.462 39.1433 214.438 39.34 214.438 39.58V43H213.308ZM221.244 43.12C220.911 43.12 220.611 43.06 220.344 42.94C220.078 42.82 219.864 42.65 219.704 42.43C219.544 42.2033 219.464 41.9367 219.464 41.63C219.464 41.1767 219.604 40.8267 219.884 40.58C220.171 40.3267 220.581 40.1433 221.114 40.03L222.784 39.68C222.784 39.3067 222.704 39.0233 222.544 38.83C222.391 38.63 222.148 38.53 221.814 38.53C221.508 38.53 221.271 38.6033 221.104 38.75C220.938 38.8967 220.828 39.09 220.774 39.33L219.544 39.26C219.644 38.7467 219.891 38.3333 220.284 38.02C220.684 37.7 221.188 37.54 221.794 37.54C222.521 37.54 223.064 37.7333 223.424 38.12C223.784 38.5067 223.964 39.0467 223.964 39.74V41.73C223.964 41.8633 223.991 41.9567 224.044 42.01C224.098 42.0567 224.171 42.08 224.264 42.08H224.524V43C224.484 43.0067 224.418 43.0133 224.324 43.02C224.238 43.0333 224.148 43.04 224.054 43.04C223.801 43.04 223.584 42.9967 223.404 42.91C223.231 42.8233 223.098 42.6933 223.004 42.52C222.911 42.34 222.861 42.12 222.854 41.86H223.004C222.971 42.1 222.874 42.3167 222.714 42.51C222.554 42.6967 222.348 42.8467 222.094 42.96C221.848 43.0667 221.564 43.12 221.244 43.12ZM221.454 42.2C221.741 42.2 221.984 42.15 222.184 42.05C222.384 41.9433 222.534 41.7967 222.634 41.61C222.734 41.4167 222.784 41.1867 222.784 40.92V40.56L221.454 40.84C221.168 40.8933 220.968 40.98 220.854 41.1C220.748 41.2133 220.694 41.3667 220.694 41.56C220.694 41.76 220.761 41.9167 220.894 42.03C221.028 42.1433 221.214 42.2 221.454 42.2ZM227.74 43V37.66H228.92V43H227.74ZM225.7 43V42.04H230.66V43H225.7ZM225.8 38.62V37.66H228.75V38.62H225.8ZM227.69 36.95V35.83H228.89V36.95H227.69ZM233.527 43V37.5C233.527 37.3 233.47 37.1433 233.357 37.03C233.25 36.9167 233.093 36.86 232.887 36.86H231.697V35.9H233.067C233.607 35.9 234.013 36.04 234.287 36.32C234.567 36.5933 234.707 37.0033 234.707 37.55V43H233.527ZM231.497 43V42.04H236.457V43H231.497ZM197.62 54V49.14H195.84V48.1H196.68C196.947 48.1 197.16 48.0633 197.32 47.99C197.487 47.91 197.607 47.7833 197.68 47.61C197.76 47.43 197.8 47.1933 197.8 46.9H198.86V54H197.62ZM195.52 54V52.86H200.48V54H195.52ZM200.856 54C200.856 53.4467 200.933 52.96 201.086 52.54C201.239 52.1133 201.506 51.72 201.886 51.36C202.266 50.9933 202.796 50.6333 203.476 50.28C203.743 50.14 203.963 50.0067 204.136 49.88C204.309 49.7533 204.439 49.6133 204.526 49.46C204.613 49.3067 204.656 49.1167 204.656 48.89C204.656 48.6833 204.613 48.5033 204.526 48.35C204.446 48.1967 204.323 48.0767 204.156 47.99C203.989 47.9033 203.783 47.86 203.536 47.86C203.129 47.86 202.816 47.97 202.596 48.19C202.376 48.41 202.236 48.7267 202.176 49.14L200.886 49.07C200.959 48.3567 201.223 47.79 201.676 47.37C202.129 46.95 202.756 46.74 203.556 46.74C204.069 46.74 204.503 46.8267 204.856 47C205.209 47.1733 205.476 47.42 205.656 47.74C205.836 48.0533 205.926 48.4167 205.926 48.83C205.926 49.2033 205.866 49.5267 205.746 49.8C205.626 50.0667 205.426 50.3167 205.146 50.55C204.873 50.7767 204.499 51.0167 204.026 51.27C203.626 51.4833 203.299 51.6867 203.046 51.88C202.799 52.0667 202.616 52.2433 202.496 52.41C202.376 52.57 202.309 52.72 202.296 52.86H205.936V54H200.856ZM208.742 54.16C207.942 54.16 207.336 53.97 206.922 53.59C206.509 53.21 206.286 52.71 206.252 52.09L207.502 52.02C207.542 52.3933 207.676 52.6567 207.902 52.81C208.136 52.9633 208.419 53.04 208.752 53.04C208.992 53.04 209.209 53.0033 209.402 52.93C209.602 52.8567 209.759 52.74 209.872 52.58C209.992 52.4133 210.052 52.2 210.052 51.94C210.052 51.68 209.999 51.4667 209.892 51.3C209.786 51.1267 209.632 51 209.432 50.92C209.232 50.8333 208.999 50.79 208.732 50.79H208.182V49.76H208.732C208.939 49.76 209.122 49.73 209.282 49.67C209.449 49.6033 209.579 49.5 209.672 49.36C209.772 49.22 209.822 49.0367 209.822 48.81C209.822 48.49 209.729 48.25 209.542 48.09C209.362 47.93 209.106 47.85 208.772 47.85C208.412 47.85 208.142 47.93 207.962 48.09C207.782 48.2433 207.676 48.4533 207.642 48.72L206.382 48.65C206.449 48.07 206.686 47.6067 207.092 47.26C207.499 46.9133 208.062 46.74 208.782 46.74C209.256 46.74 209.666 46.8167 210.012 46.97C210.366 47.1233 210.636 47.3467 210.822 47.64C211.009 47.9267 211.102 48.2733 211.102 48.68C211.102 49.1267 210.966 49.4867 210.692 49.76C210.419 50.0267 210.022 50.2067 209.502 50.3V50.11C210.076 50.1767 210.522 50.38 210.842 50.72C211.169 51.0533 211.332 51.48 211.332 52C211.332 52.4533 211.226 52.8433 211.012 53.17C210.799 53.49 210.496 53.7367 210.102 53.91C209.716 54.0767 209.262 54.16 208.742 54.16ZM219.584 54.16C219.018 54.16 218.534 54.0167 218.134 53.73C217.741 53.4433 217.441 53.0233 217.234 52.47C217.028 51.9167 216.924 51.2467 216.924 50.46C216.924 49.66 217.028 48.9833 217.234 48.43C217.441 47.8767 217.741 47.4567 218.134 47.17C218.534 46.8833 219.018 46.74 219.584 46.74C220.151 46.74 220.631 46.8833 221.024 47.17C221.424 47.4567 221.728 47.8767 221.934 48.43C222.141 48.9833 222.244 49.66 222.244 50.46C222.244 51.2467 222.141 51.9167 221.934 52.47C221.728 53.0233 221.424 53.4433 221.024 53.73C220.631 54.0167 220.151 54.16 219.584 54.16ZM219.584 53.04C219.884 53.04 220.138 52.9467 220.344 52.76C220.551 52.5733 220.704 52.29 220.804 51.91C220.911 51.5233 220.964 51.04 220.964 50.46C220.964 49.88 220.911 49.3967 220.804 49.01C220.704 48.6233 220.551 48.3367 220.344 48.15C220.138 47.9567 219.884 47.86 219.584 47.86C219.284 47.86 219.031 47.9567 218.824 48.15C218.618 48.3367 218.461 48.6233 218.354 49.01C218.254 49.3967 218.204 49.88 218.204 50.46C218.204 51.04 218.254 51.5233 218.354 51.91C218.461 52.29 218.618 52.5733 218.824 52.76C219.031 52.9467 219.284 53.04 219.584 53.04ZM222.62 55.5V48.66H223.75L223.78 49.88L223.66 49.82C223.794 49.4067 224.007 49.09 224.3 48.87C224.6 48.65 224.96 48.54 225.38 48.54C225.874 48.54 226.28 48.6667 226.6 48.92C226.927 49.1733 227.167 49.51 227.32 49.93C227.48 50.35 227.56 50.8167 227.56 51.33C227.56 51.8433 227.48 52.31 227.32 52.73C227.167 53.15 226.927 53.4867 226.6 53.74C226.28 53.9933 225.874 54.12 225.38 54.12C225.107 54.12 224.854 54.0767 224.62 53.99C224.394 53.8967 224.197 53.7667 224.03 53.6C223.87 53.4267 223.75 53.2133 223.67 52.96L223.8 52.82V55.5H222.62ZM225.08 53.06C225.474 53.06 225.78 52.9167 226 52.63C226.22 52.3367 226.33 51.9033 226.33 51.33C226.33 50.7567 226.22 50.3267 226 50.04C225.78 49.7467 225.474 49.6 225.08 49.6C224.827 49.6 224.604 49.6633 224.41 49.79C224.224 49.9167 224.074 50.11 223.96 50.37C223.854 50.6233 223.8 50.9433 223.8 51.33C223.8 51.7167 223.854 52.04 223.96 52.3C224.067 52.5533 224.217 52.7433 224.41 52.87C224.604 52.9967 224.827 53.06 225.08 53.06ZM230.427 54.12C229.927 54.12 229.487 54.0067 229.107 53.78C228.733 53.5533 228.443 53.23 228.237 52.81C228.03 52.39 227.927 51.8967 227.927 51.33C227.927 50.77 228.03 50.2833 228.237 49.87C228.443 49.45 228.73 49.1233 229.097 48.89C229.47 48.6567 229.907 48.54 230.407 48.54C230.887 48.54 231.31 48.6533 231.677 48.88C232.05 49.1067 232.34 49.43 232.547 49.85C232.76 50.27 232.867 50.77 232.867 51.35V51.66H229.147C229.18 52.1133 229.31 52.46 229.537 52.7C229.77 52.94 230.073 53.06 230.447 53.06C230.733 53.06 230.97 52.9933 231.157 52.86C231.35 52.72 231.483 52.54 231.557 52.32L232.767 52.41C232.6 52.9433 232.317 53.3633 231.917 53.67C231.517 53.97 231.02 54.12 230.427 54.12ZM229.157 50.8H231.587C231.553 50.3933 231.43 50.0933 231.217 49.9C231.003 49.7 230.73 49.6 230.397 49.6C230.063 49.6 229.787 49.7033 229.567 49.91C229.353 50.11 229.217 50.4067 229.157 50.8ZM233.533 54V48.66H234.613L234.653 50.09L234.533 50.02C234.593 49.68 234.706 49.4033 234.873 49.19C235.039 48.97 235.243 48.8067 235.483 48.7C235.729 48.5933 235.996 48.54 236.283 48.54C236.676 48.54 236.999 48.6267 237.253 48.8C237.506 48.9733 237.696 49.2133 237.823 49.52C237.949 49.82 238.013 50.1633 238.013 50.55V54H236.833V50.83C236.833 50.4033 236.753 50.0833 236.593 49.87C236.439 49.6567 236.203 49.55 235.883 49.55C235.669 49.55 235.473 49.6 235.293 49.7C235.119 49.8 234.979 49.95 234.873 50.15C234.766 50.3433 234.713 50.5833 234.713 50.87V54H233.533ZM246.635 54.16C246.115 54.16 245.662 54.0567 245.275 53.85C244.895 53.6433 244.595 53.3533 244.375 52.98C244.155 52.6 244.025 52.1533 243.985 51.64L245.245 51.57C245.292 51.8967 245.375 52.17 245.495 52.39C245.622 52.6033 245.785 52.7667 245.985 52.88C246.192 52.9867 246.428 53.04 246.695 53.04C246.948 53.04 247.162 53.0067 247.335 52.94C247.515 52.8733 247.652 52.7733 247.745 52.64C247.838 52.5067 247.885 52.3467 247.885 52.16C247.885 51.96 247.838 51.7867 247.745 51.64C247.652 51.4933 247.485 51.3567 247.245 51.23C247.005 51.1033 246.662 50.98 246.215 50.86C245.735 50.7333 245.342 50.5867 245.035 50.42C244.728 50.2533 244.502 50.0467 244.355 49.8C244.208 49.5467 244.135 49.23 244.135 48.85C244.135 48.4233 244.228 48.0533 244.415 47.74C244.608 47.42 244.885 47.1733 245.245 47C245.612 46.8267 246.048 46.74 246.555 46.74C247.055 46.74 247.482 46.8367 247.835 47.03C248.188 47.2167 248.465 47.4867 248.665 47.84C248.872 48.1867 248.998 48.6 249.045 49.08L247.775 49.14C247.742 48.88 247.672 48.6567 247.565 48.47C247.465 48.2767 247.325 48.1267 247.145 48.02C246.972 47.9133 246.758 47.86 246.505 47.86C246.165 47.86 245.895 47.9467 245.695 48.12C245.495 48.2867 245.395 48.5067 245.395 48.78C245.395 48.9733 245.438 49.1333 245.525 49.26C245.618 49.3867 245.775 49.5 245.995 49.6C246.215 49.7 246.525 49.8 246.925 49.9C247.478 50.0467 247.915 50.22 248.235 50.42C248.562 50.62 248.795 50.86 248.935 51.14C249.075 51.42 249.145 51.75 249.145 52.13C249.145 52.5367 249.042 52.8933 248.835 53.2C248.628 53.5067 248.338 53.7433 247.965 53.91C247.592 54.0767 247.148 54.16 246.635 54.16ZM251.961 54.12C251.461 54.12 251.021 54.0067 250.641 53.78C250.268 53.5533 249.978 53.23 249.771 52.81C249.564 52.39 249.461 51.8967 249.461 51.33C249.461 50.7633 249.564 50.27 249.771 49.85C249.978 49.43 250.268 49.1067 250.641 48.88C251.021 48.6533 251.461 48.54 251.961 48.54C252.461 48.54 252.898 48.6533 253.271 48.88C253.651 49.1067 253.944 49.43 254.151 49.85C254.358 50.2633 254.461 50.7567 254.461 51.33C254.461 51.8967 254.358 52.39 254.151 52.81C253.944 53.23 253.651 53.5533 253.271 53.78C252.898 54.0067 252.461 54.12 251.961 54.12ZM251.961 53.06C252.368 53.06 252.681 52.91 252.901 52.61C253.121 52.3033 253.231 51.8767 253.231 51.33C253.231 50.7833 253.121 50.36 252.901 50.06C252.681 49.7533 252.368 49.6 251.961 49.6C251.554 49.6 251.241 49.7533 251.021 50.06C250.801 50.36 250.691 50.7833 250.691 51.33C250.691 51.8767 250.801 52.3033 251.021 52.61C251.241 52.91 251.554 53.06 251.961 53.06ZM256.817 54.12C256.304 54.12 255.897 53.95 255.597 53.61C255.304 53.2633 255.157 52.7733 255.157 52.14V48.66H256.337V51.83C256.337 52.2767 256.41 52.6033 256.557 52.81C256.71 53.01 256.94 53.11 257.247 53.11C257.567 53.11 257.827 52.9967 258.027 52.77C258.234 52.5367 258.337 52.21 258.337 51.79V48.66H259.527V54H258.427L258.407 52.53L258.557 52.58C258.47 53.0733 258.277 53.4533 257.977 53.72C257.677 53.9867 257.29 54.12 256.817 54.12ZM261.853 54V48.66H262.753L262.843 50.04H262.753C262.82 49.5733 262.96 49.2267 263.173 49C263.393 48.7733 263.703 48.66 264.103 48.66H265.273V49.65H264.173C263.92 49.65 263.71 49.6967 263.543 49.79C263.376 49.8833 263.25 50.02 263.163 50.2C263.076 50.38 263.033 50.6067 263.033 50.88V54H261.853ZM260.533 54V53.04H264.683V54H260.533ZM260.533 49.62V48.66H262.543V49.62H260.533ZM268.259 54.12C267.753 54.12 267.309 54.0033 266.929 53.77C266.549 53.5367 266.253 53.2133 266.039 52.8C265.826 52.38 265.719 51.89 265.719 51.33C265.719 50.77 265.826 50.2833 266.039 49.87C266.253 49.45 266.549 49.1233 266.929 48.89C267.309 48.6567 267.753 48.54 268.259 48.54C268.673 48.54 269.043 48.62 269.369 48.78C269.703 48.94 269.976 49.17 270.189 49.47C270.409 49.7633 270.549 50.1133 270.609 50.52L269.419 50.59C269.346 50.27 269.209 50.0267 269.009 49.86C268.809 49.6867 268.563 49.6 268.269 49.6C267.856 49.6 267.533 49.7567 267.299 50.07C267.066 50.3767 266.949 50.7967 266.949 51.33C266.949 51.8633 267.066 52.2867 267.299 52.6C267.533 52.9067 267.856 53.06 268.269 53.06C268.563 53.06 268.813 52.97 269.019 52.79C269.233 52.61 269.376 52.3467 269.449 52L270.639 52.07C270.573 52.4833 270.429 52.8433 270.209 53.15C269.996 53.4567 269.719 53.6967 269.379 53.87C269.046 54.0367 268.673 54.12 268.259 54.12ZM273.595 54.12C273.095 54.12 272.655 54.0067 272.275 53.78C271.902 53.5533 271.612 53.23 271.405 52.81C271.199 52.39 271.095 51.8967 271.095 51.33C271.095 50.77 271.199 50.2833 271.405 49.87C271.612 49.45 271.899 49.1233 272.265 48.89C272.639 48.6567 273.075 48.54 273.575 48.54C274.055 48.54 274.479 48.6533 274.845 48.88C275.219 49.1067 275.509 49.43 275.715 49.85C275.929 50.27 276.035 50.77 276.035 51.35V51.66H272.315C272.349 52.1133 272.479 52.46 272.705 52.7C272.939 52.94 273.242 53.06 273.615 53.06C273.902 53.06 274.139 52.9933 274.325 52.86C274.519 52.72 274.652 52.54 274.725 52.32L275.935 52.41C275.769 52.9433 275.485 53.3633 275.085 53.67C274.685 53.97 274.189 54.12 273.595 54.12ZM272.325 50.8H274.755C274.722 50.3933 274.599 50.0933 274.385 49.9C274.172 49.7 273.899 49.6 273.565 49.6C273.232 49.6 272.955 49.7033 272.735 49.91C272.522 50.11 272.385 50.4067 272.325 50.8ZM282.348 54L281.598 46.9H282.798L283.308 52.78H283.188L283.878 47.7H284.798L285.488 52.78H285.368L285.878 46.9H287.078L286.328 54H284.898L284.218 49.2H284.458L283.778 54H282.348ZM288.994 54.12C288.66 54.12 288.36 54.06 288.094 53.94C287.827 53.82 287.614 53.65 287.454 53.43C287.294 53.2033 287.214 52.9367 287.214 52.63C287.214 52.1767 287.354 51.8267 287.634 51.58C287.92 51.3267 288.33 51.1433 288.864 51.03L290.534 50.68C290.534 50.3067 290.454 50.0233 290.294 49.83C290.14 49.63 289.897 49.53 289.564 49.53C289.257 49.53 289.02 49.6033 288.854 49.75C288.687 49.8967 288.577 50.09 288.524 50.33L287.294 50.26C287.394 49.7467 287.64 49.3333 288.034 49.02C288.434 48.7 288.937 48.54 289.544 48.54C290.27 48.54 290.814 48.7333 291.174 49.12C291.534 49.5067 291.714 50.0467 291.714 50.74V52.73C291.714 52.8633 291.74 52.9567 291.794 53.01C291.847 53.0567 291.92 53.08 292.014 53.08H292.274V54C292.234 54.0067 292.167 54.0133 292.074 54.02C291.987 54.0333 291.897 54.04 291.804 54.04C291.55 54.04 291.334 53.9967 291.154 53.91C290.98 53.8233 290.847 53.6933 290.754 53.52C290.66 53.34 290.61 53.12 290.604 52.86H290.754C290.72 53.1 290.624 53.3167 290.464 53.51C290.304 53.6967 290.097 53.8467 289.844 53.96C289.597 54.0667 289.314 54.12 288.994 54.12ZM289.204 53.2C289.49 53.2 289.734 53.15 289.934 53.05C290.134 52.9433 290.284 52.7967 290.384 52.61C290.484 52.4167 290.534 52.1867 290.534 51.92V51.56L289.204 51.84C288.917 51.8933 288.717 51.98 288.604 52.1C288.497 52.2133 288.444 52.3667 288.444 52.56C288.444 52.76 288.51 52.9167 288.644 53.03C288.777 53.1433 288.964 53.2 289.204 53.2ZM293.36 55.5V54.54H294.04C294.22 54.54 294.356 54.5133 294.45 54.46C294.543 54.4067 294.613 54.3133 294.66 54.18L294.83 53.74H294.44L292.53 48.66H293.78L295.2 52.62L296.5 48.66H297.75L295.66 54.54C295.54 54.88 295.356 55.1233 295.11 55.27C294.87 55.4233 294.553 55.5 294.16 55.5H293.36ZM195.96 65V57.9H200.44V59.02H196.44L197.2 58.3V61.56L196.44 60.97H200.26V62.08H196.44L197.2 61.5V65H195.96ZM202.496 65V59.66H203.396L203.486 61.04H203.396C203.463 60.5733 203.603 60.2267 203.816 60C204.036 59.7733 204.346 59.66 204.746 59.66H205.916V60.65H204.816C204.563 60.65 204.353 60.6967 204.186 60.79C204.019 60.8833 203.893 61.02 203.806 61.2C203.719 61.38 203.676 61.6067 203.676 61.88V65H202.496ZM201.176 65V64.04H205.326V65H201.176ZM201.176 60.62V59.66H203.186V60.62H201.176ZM208.842 65.12C208.342 65.12 207.902 65.0067 207.522 64.78C207.149 64.5533 206.859 64.23 206.652 63.81C206.446 63.39 206.342 62.8967 206.342 62.33C206.342 61.77 206.446 61.2833 206.652 60.87C206.859 60.45 207.146 60.1233 207.512 59.89C207.886 59.6567 208.322 59.54 208.822 59.54C209.302 59.54 209.726 59.6533 210.092 59.88C210.466 60.1067 210.756 60.43 210.962 60.85C211.176 61.27 211.282 61.77 211.282 62.35V62.66H207.562C207.596 63.1133 207.726 63.46 207.952 63.7C208.186 63.94 208.489 64.06 208.862 64.06C209.149 64.06 209.386 63.9933 209.572 63.86C209.766 63.72 209.899 63.54 209.972 63.32L211.182 63.41C211.016 63.9433 210.732 64.3633 210.332 64.67C209.932 64.97 209.436 65.12 208.842 65.12ZM207.572 61.8H210.002C209.969 61.3933 209.846 61.0933 209.632 60.9C209.419 60.7 209.146 60.6 208.812 60.6C208.479 60.6 208.202 60.7033 207.982 60.91C207.769 61.11 207.632 61.4067 207.572 61.8ZM214.238 65.12C213.738 65.12 213.298 65.0067 212.918 64.78C212.545 64.5533 212.255 64.23 212.048 63.81C211.842 63.39 211.738 62.8967 211.738 62.33C211.738 61.77 211.842 61.2833 212.048 60.87C212.255 60.45 212.542 60.1233 212.908 59.89C213.282 59.6567 213.718 59.54 214.218 59.54C214.698 59.54 215.122 59.6533 215.488 59.88C215.862 60.1067 216.152 60.43 216.358 60.85C216.572 61.27 216.678 61.77 216.678 62.35V62.66H212.958C212.992 63.1133 213.122 63.46 213.348 63.7C213.582 63.94 213.885 64.06 214.258 64.06C214.545 64.06 214.782 63.9933 214.968 63.86C215.162 63.72 215.295 63.54 215.368 63.32L216.578 63.41C216.412 63.9433 216.128 64.3633 215.728 64.67C215.328 64.97 214.832 65.12 214.238 65.12ZM212.968 61.8H215.398C215.365 61.3933 215.242 61.0933 215.028 60.9C214.815 60.7 214.542 60.6 214.208 60.6C213.875 60.6 213.598 60.7033 213.378 60.91C213.165 61.11 213.028 61.4067 212.968 61.8ZM216.904 65V59.66H217.894L217.944 60.88L217.824 60.85C217.904 60.4233 218.041 60.1 218.234 59.88C218.428 59.6533 218.671 59.54 218.964 59.54C219.284 59.54 219.524 59.6533 219.684 59.88C219.844 60.1067 219.948 60.4467 219.994 60.9H219.864C219.931 60.46 220.071 60.1233 220.284 59.89C220.504 59.6567 220.774 59.54 221.094 59.54C221.501 59.54 221.798 59.6833 221.984 59.97C222.171 60.2567 222.264 60.7133 222.264 61.34V65H221.134V61.57C221.134 61.1767 221.098 60.91 221.024 60.77C220.951 60.6233 220.834 60.55 220.674 60.55C220.568 60.55 220.471 60.5867 220.384 60.66C220.304 60.7267 220.238 60.8367 220.184 60.99C220.138 61.1433 220.114 61.34 220.114 61.58V65H219.054V61.57C219.054 61.1967 219.018 60.9333 218.944 60.78C218.871 60.6267 218.751 60.55 218.584 60.55C218.471 60.55 218.374 60.5867 218.294 60.66C218.214 60.7267 218.151 60.8367 218.104 60.99C218.058 61.1433 218.034 61.34 218.034 61.58V65H216.904ZM224.24 65.12C223.907 65.12 223.607 65.06 223.34 64.94C223.074 64.82 222.86 64.65 222.7 64.43C222.54 64.2033 222.46 63.9367 222.46 63.63C222.46 63.1767 222.6 62.8267 222.88 62.58C223.167 62.3267 223.577 62.1433 224.11 62.03L225.78 61.68C225.78 61.3067 225.7 61.0233 225.54 60.83C225.387 60.63 225.144 60.53 224.81 60.53C224.504 60.53 224.267 60.6033 224.1 60.75C223.934 60.8967 223.824 61.09 223.77 61.33L222.54 61.26C222.64 60.7467 222.887 60.3333 223.28 60.02C223.68 59.7 224.184 59.54 224.79 59.54C225.517 59.54 226.06 59.7333 226.42 60.12C226.78 60.5067 226.96 61.0467 226.96 61.74V63.73C226.96 63.8633 226.987 63.9567 227.04 64.01C227.094 64.0567 227.167 64.08 227.26 64.08H227.52V65C227.48 65.0067 227.414 65.0133 227.32 65.02C227.234 65.0333 227.144 65.04 227.05 65.04C226.797 65.04 226.58 64.9967 226.4 64.91C226.227 64.8233 226.094 64.6933 226 64.52C225.907 64.34 225.857 64.12 225.85 63.86H226C225.967 64.1 225.87 64.3167 225.71 64.51C225.55 64.6967 225.344 64.8467 225.09 64.96C224.844 65.0667 224.56 65.12 224.24 65.12ZM224.45 64.2C224.737 64.2 224.98 64.15 225.18 64.05C225.38 63.9433 225.53 63.7967 225.63 63.61C225.73 63.4167 225.78 63.1867 225.78 62.92V62.56L224.45 62.84C224.164 62.8933 223.964 62.98 223.85 63.1C223.744 63.2133 223.69 63.3667 223.69 63.56C223.69 63.76 223.757 63.9167 223.89 64.03C224.024 64.1433 224.21 64.2 224.45 64.2ZM230.137 65V59.66H231.317V65H230.137ZM228.097 65V64.04H233.057V65H228.097ZM228.197 60.62V59.66H231.147V60.62H228.197ZM230.087 58.95V57.83H231.287V58.95H230.087ZM235.323 65V59.5C235.323 59.3 235.266 59.1433 235.153 59.03C235.046 58.9167 234.889 58.86 234.683 58.86H233.493V57.9H234.863C235.403 57.9 235.809 58.04 236.083 58.32C236.363 58.5933 236.503 59.0033 236.503 59.55V65H235.323ZM233.293 65V64.04H238.253V65H233.293ZM246.605 65.16C246.025 65.16 245.535 65.01 245.135 64.71C244.735 64.41 244.428 63.9833 244.215 63.43C244.008 62.8767 243.905 62.22 243.905 61.46C243.905 60.6933 244.008 60.0333 244.215 59.48C244.428 58.9267 244.735 58.5 245.135 58.2C245.535 57.8933 246.025 57.74 246.605 57.74C247.272 57.74 247.828 57.96 248.275 58.4C248.722 58.84 249.008 59.4633 249.135 60.27L247.865 60.33C247.778 59.85 247.622 59.4867 247.395 59.24C247.175 58.9867 246.912 58.86 246.605 58.86C246.292 58.86 246.028 58.9633 245.815 59.17C245.608 59.37 245.452 59.6633 245.345 60.05C245.238 60.4367 245.185 60.9067 245.185 61.46C245.185 62.0067 245.238 62.4733 245.345 62.86C245.452 63.2467 245.608 63.54 245.815 63.74C246.028 63.94 246.292 64.04 246.605 64.04C246.925 64.04 247.202 63.9067 247.435 63.64C247.668 63.3667 247.825 62.97 247.905 62.45L249.175 62.5C249.055 63.34 248.768 63.9933 248.315 64.46C247.868 64.9267 247.298 65.16 246.605 65.16ZM251.721 65V59.66H252.901V65H251.721ZM249.681 65V64.04H254.641V65H249.681ZM249.781 60.62V59.66H252.731V60.62H249.781ZM251.671 58.95V57.83H252.871V58.95H251.671ZM258.107 65C257.534 65 257.11 64.87 256.837 64.61C256.564 64.3433 256.427 63.94 256.427 63.4V58.41H257.607V63.31C257.607 63.5567 257.667 63.74 257.787 63.86C257.907 63.98 258.084 64.04 258.317 64.04H259.637V65H258.107ZM254.817 60.62V59.66H259.637V60.62H254.817ZM260.983 66.5V65.54H261.663C261.843 65.54 261.98 65.5133 262.073 65.46C262.166 65.4067 262.236 65.3133 262.283 65.18L262.453 64.74H262.063L260.153 59.66H261.403L262.823 63.62L264.123 59.66H265.373L263.283 65.54C263.163 65.88 262.98 66.1233 262.733 66.27C262.493 66.4233 262.176 66.5 261.783 66.5H260.983ZM267.559 66.57L268.049 65H267.429V63.59H268.869V64.85L268.209 66.57H267.559ZM276.901 65V57.9H281.381V59.02H277.381L278.141 58.3V61.56L277.381 60.97H281.201V62.08H277.381L278.141 61.5V65H276.901ZM284.408 65.16C283.888 65.16 283.434 65.0567 283.048 64.85C282.668 64.6433 282.368 64.3533 282.148 63.98C281.928 63.6 281.798 63.1533 281.758 62.64L283.018 62.57C283.064 62.8967 283.148 63.17 283.268 63.39C283.394 63.6033 283.558 63.7667 283.758 63.88C283.964 63.9867 284.201 64.04 284.468 64.04C284.721 64.04 284.934 64.0067 285.108 63.94C285.288 63.8733 285.424 63.7733 285.518 63.64C285.611 63.5067 285.658 63.3467 285.658 63.16C285.658 62.96 285.611 62.7867 285.518 62.64C285.424 62.4933 285.258 62.3567 285.018 62.23C284.778 62.1033 284.434 61.98 283.988 61.86C283.508 61.7333 283.114 61.5867 282.808 61.42C282.501 61.2533 282.274 61.0467 282.128 60.8C281.981 60.5467 281.908 60.23 281.908 59.85C281.908 59.4233 282.001 59.0533 282.188 58.74C282.381 58.42 282.658 58.1733 283.018 58C283.384 57.8267 283.821 57.74 284.328 57.74C284.828 57.74 285.254 57.8367 285.608 58.03C285.961 58.2167 286.238 58.4867 286.438 58.84C286.644 59.1867 286.771 59.6 286.818 60.08L285.548 60.14C285.514 59.88 285.444 59.6567 285.338 59.47C285.238 59.2767 285.098 59.1267 284.918 59.02C284.744 58.9133 284.531 58.86 284.278 58.86C283.938 58.86 283.668 58.9467 283.468 59.12C283.268 59.2867 283.168 59.5067 283.168 59.78C283.168 59.9733 283.211 60.1333 283.298 60.26C283.391 60.3867 283.548 60.5 283.768 60.6C283.988 60.7 284.298 60.8 284.698 60.9C285.251 61.0467 285.688 61.22 286.008 61.42C286.334 61.62 286.568 61.86 286.708 62.14C286.848 62.42 286.918 62.75 286.918 63.13C286.918 63.5367 286.814 63.8933 286.608 64.2C286.401 64.5067 286.111 64.7433 285.738 64.91C285.364 65.0767 284.921 65.16 284.408 65.16ZM295.11 57.74C295.67 57.74 296.143 57.8667 296.53 58.12C296.916 58.3667 297.21 58.73 297.41 59.21C297.61 59.6833 297.71 60.26 297.71 60.94C297.71 61.5333 297.656 62.0867 297.55 62.6C297.45 63.1067 297.286 63.5533 297.06 63.94C296.833 64.32 296.536 64.62 296.17 64.84C295.81 65.0533 295.37 65.16 294.85 65.16C294.396 65.16 294.016 65.0867 293.71 64.94C293.403 64.7867 293.156 64.58 292.97 64.32C292.79 64.0533 292.656 63.7533 292.57 63.42L293.83 63.32C293.89 63.5333 293.996 63.7067 294.15 63.84C294.31 63.9733 294.543 64.04 294.85 64.04C295.176 64.04 295.456 63.9467 295.69 63.76C295.93 63.5667 296.116 63.2733 296.25 62.88C296.383 62.48 296.453 61.9667 296.46 61.34L296.82 61.38C296.746 61.6067 296.623 61.82 296.45 62.02C296.276 62.2133 296.056 62.3733 295.79 62.5C295.53 62.6267 295.22 62.69 294.86 62.69C294.393 62.69 293.986 62.59 293.64 62.39C293.293 62.19 293.023 61.91 292.83 61.55C292.643 61.19 292.55 60.77 292.55 60.29C292.55 59.7633 292.656 59.31 292.87 58.93C293.083 58.55 293.38 58.2567 293.76 58.05C294.146 57.8433 294.596 57.74 295.11 57.74ZM295.12 58.88C294.72 58.88 294.403 59 294.17 59.24C293.943 59.4733 293.83 59.8133 293.83 60.26C293.83 60.6667 293.936 60.9933 294.15 61.24C294.363 61.48 294.666 61.6 295.06 61.6C295.333 61.6 295.57 61.5467 295.77 61.44C295.976 61.3267 296.136 61.17 296.25 60.97C296.37 60.7633 296.43 60.5233 296.43 60.25C296.43 59.99 296.376 59.7567 296.27 59.55C296.17 59.3433 296.02 59.18 295.82 59.06C295.626 58.94 295.393 58.88 295.12 58.88ZM300.526 65.16C300.019 65.16 299.572 65.08 299.186 64.92C298.799 64.76 298.496 64.5233 298.276 64.21C298.056 63.8967 297.946 63.5133 297.946 63.06C297.946 62.54 298.102 62.11 298.416 61.77C298.736 61.43 299.159 61.2033 299.686 61.09L299.706 61.29C299.279 61.19 298.929 61.01 298.656 60.75C298.389 60.4833 298.256 60.13 298.256 59.69C298.256 59.3167 298.349 58.9833 298.536 58.69C298.729 58.3967 298.996 58.1667 299.336 58C299.676 57.8267 300.072 57.74 300.526 57.74C300.979 57.74 301.376 57.8267 301.716 58C302.062 58.1667 302.329 58.3967 302.516 58.69C302.702 58.9833 302.796 59.3167 302.796 59.69C302.796 60.13 302.662 60.4833 302.396 60.75C302.129 61.01 301.779 61.19 301.346 61.29L301.366 61.09C301.899 61.2033 302.322 61.43 302.636 61.77C302.949 62.11 303.106 62.54 303.106 63.06C303.106 63.5133 302.996 63.8967 302.776 64.21C302.556 64.5233 302.252 64.76 301.866 64.92C301.479 65.08 301.032 65.16 300.526 65.16ZM300.526 64.04C300.892 64.04 301.199 63.9533 301.446 63.78C301.699 63.6067 301.826 63.3267 301.826 62.94C301.826 62.58 301.712 62.2967 301.486 62.09C301.266 61.8767 300.946 61.77 300.526 61.77C300.106 61.77 299.782 61.8767 299.556 62.09C299.336 62.2967 299.226 62.58 299.226 62.94C299.226 63.3267 299.349 63.6067 299.596 63.78C299.849 63.9533 300.159 64.04 300.526 64.04ZM300.526 60.69C300.826 60.69 301.066 60.6133 301.246 60.46C301.432 60.3067 301.526 60.0733 301.526 59.76C301.526 59.48 301.436 59.26 301.256 59.1C301.076 58.94 300.832 58.86 300.526 58.86C300.226 58.86 299.982 58.94 299.796 59.1C299.616 59.26 299.526 59.48 299.526 59.76C299.526 60.0733 299.616 60.3067 299.796 60.46C299.982 60.6133 300.226 60.69 300.526 60.69ZM304.672 65C304.672 64.28 304.769 63.5733 304.962 62.88C305.162 62.1867 305.442 61.52 305.802 60.88C306.169 60.2333 306.602 59.62 307.102 59.04H303.482V57.9H308.362V58.97C307.942 59.4433 307.579 59.9133 307.272 60.38C306.972 60.8467 306.725 61.32 306.532 61.8C306.345 62.2733 306.205 62.7733 306.112 63.3C306.025 63.8267 305.982 64.3933 305.982 65H304.672ZM311.338 65.16C310.778 65.16 310.305 65.0367 309.918 64.79C309.531 64.5367 309.238 64.17 309.038 63.69C308.838 63.21 308.738 62.6333 308.738 61.96C308.738 61.3667 308.788 60.8167 308.888 60.31C308.995 59.7967 309.161 59.35 309.388 58.97C309.615 58.5833 309.908 58.2833 310.268 58.07C310.635 57.85 311.078 57.74 311.598 57.74C312.051 57.74 312.431 57.8167 312.738 57.97C313.045 58.1167 313.288 58.3233 313.468 58.59C313.655 58.85 313.791 59.1467 313.878 59.48L312.618 59.58C312.558 59.3667 312.451 59.1933 312.298 59.06C312.145 58.9267 311.911 58.86 311.598 58.86C311.271 58.86 310.988 58.9567 310.748 59.15C310.515 59.3367 310.331 59.63 310.198 60.03C310.065 60.4233 309.995 60.9333 309.988 61.56L309.628 61.52C309.701 61.2933 309.825 61.0833 309.998 60.89C310.171 60.69 310.388 60.5267 310.648 60.4C310.915 60.2733 311.228 60.21 311.588 60.21C312.055 60.21 312.461 60.31 312.808 60.51C313.155 60.71 313.421 60.99 313.608 61.35C313.801 61.71 313.898 62.13 313.898 62.61C313.898 63.13 313.791 63.5833 313.578 63.97C313.365 64.35 313.065 64.6433 312.678 64.85C312.298 65.0567 311.851 65.16 311.338 65.16ZM311.328 64.02C311.735 64.02 312.051 63.9 312.278 63.66C312.505 63.42 312.618 63.08 312.618 62.64C312.618 62.2267 312.511 61.9 312.298 61.66C312.085 61.42 311.781 61.3 311.388 61.3C311.121 61.3 310.885 61.3567 310.678 61.47C310.471 61.5767 310.308 61.7333 310.188 61.94C310.075 62.14 310.018 62.3767 310.018 62.65C310.018 62.91 310.068 63.1433 310.168 63.35C310.275 63.5567 310.425 63.72 310.618 63.84C310.818 63.96 311.055 64.02 311.328 64.02ZM316.704 65.16C316.217 65.16 315.794 65.0733 315.434 64.9C315.081 64.72 314.801 64.4767 314.594 64.17C314.387 63.8633 314.267 63.5167 314.234 63.13L315.514 63.05C315.561 63.3767 315.684 63.6233 315.884 63.79C316.091 63.9567 316.364 64.04 316.704 64.04C317.077 64.04 317.371 63.9233 317.584 63.69C317.804 63.4567 317.914 63.1233 317.914 62.69C317.914 62.4033 317.864 62.1567 317.764 61.95C317.671 61.7433 317.534 61.5867 317.354 61.48C317.174 61.3733 316.961 61.32 316.714 61.32C316.474 61.32 316.254 61.38 316.054 61.5C315.854 61.62 315.711 61.7833 315.624 61.99L314.334 61.94L314.784 57.9H318.834V59.04H315.824L315.554 61.32L315.294 61.18C315.401 60.98 315.537 60.8133 315.704 60.68C315.871 60.5467 316.057 60.4467 316.264 60.38C316.477 60.3067 316.694 60.27 316.914 60.27C317.381 60.27 317.784 60.3767 318.124 60.59C318.464 60.7967 318.727 61.0833 318.914 61.45C319.101 61.81 319.194 62.2233 319.194 62.69C319.194 63.1767 319.091 63.6067 318.884 63.98C318.677 64.3533 318.384 64.6433 318.004 64.85C317.631 65.0567 317.197 65.16 316.704 65.16ZM198 76.16C197.233 76.16 196.633 75.9333 196.2 75.48C195.773 75.02 195.56 74.3733 195.56 73.54V68.9H196.8V73.62C196.8 74.0733 196.9 74.4233 197.1 74.67C197.307 74.9167 197.607 75.04 198 75.04C198.393 75.04 198.69 74.9167 198.89 74.67C199.097 74.4233 199.2 74.0733 199.2 73.62V68.9H200.44V73.54C200.44 74.3733 200.223 75.02 199.79 75.48C199.363 75.9333 198.767 76.16 198 76.16ZM201.156 76V70.66H202.236L202.276 72.09L202.156 72.02C202.216 71.68 202.329 71.4033 202.496 71.19C202.663 70.97 202.866 70.8067 203.106 70.7C203.353 70.5933 203.619 70.54 203.906 70.54C204.299 70.54 204.623 70.6267 204.876 70.8C205.129 70.9733 205.319 71.2133 205.446 71.52C205.573 71.82 205.636 72.1633 205.636 72.55V76H204.456V72.83C204.456 72.4033 204.376 72.0833 204.216 71.87C204.063 71.6567 203.826 71.55 203.506 71.55C203.293 71.55 203.096 71.6 202.916 71.7C202.743 71.8 202.603 71.95 202.496 72.15C202.389 72.3433 202.336 72.5833 202.336 72.87V76H201.156ZM208.552 76V70.66H209.732V76H208.552ZM206.512 76V75.04H211.472V76H206.512ZM206.612 71.62V70.66H209.562V71.62H206.612ZM208.502 69.95V68.83H209.702V69.95H208.502ZM214.938 76C214.365 76 213.942 75.87 213.668 75.61C213.395 75.3433 213.258 74.94 213.258 74.4V69.41H214.438V74.31C214.438 74.5567 214.498 74.74 214.618 74.86C214.738 74.98 214.915 75.04 215.148 75.04H216.468V76H214.938ZM211.648 71.62V70.66H216.468V71.62H211.648ZM219.634 76.12C219.134 76.12 218.694 76.0067 218.314 75.78C217.941 75.5533 217.651 75.23 217.444 74.81C217.238 74.39 217.134 73.8967 217.134 73.33C217.134 72.77 217.238 72.2833 217.444 71.87C217.651 71.45 217.938 71.1233 218.304 70.89C218.678 70.6567 219.114 70.54 219.614 70.54C220.094 70.54 220.518 70.6533 220.884 70.88C221.258 71.1067 221.548 71.43 221.754 71.85C221.968 72.27 222.074 72.77 222.074 73.35V73.66H218.354C218.388 74.1133 218.518 74.46 218.744 74.7C218.978 74.94 219.281 75.06 219.654 75.06C219.941 75.06 220.178 74.9933 220.364 74.86C220.558 74.72 220.691 74.54 220.764 74.32L221.974 74.41C221.808 74.9433 221.524 75.3633 221.124 75.67C220.724 75.97 220.228 76.12 219.634 76.12ZM218.364 72.8H220.794C220.761 72.3933 220.638 72.0933 220.424 71.9C220.211 71.7 219.938 71.6 219.604 71.6C219.271 71.6 218.994 71.7033 218.774 71.91C218.561 72.11 218.424 72.4067 218.364 72.8ZM224.48 76.12C224.034 76.12 223.647 76.01 223.32 75.79C222.994 75.5633 222.74 75.2433 222.56 74.83C222.387 74.41 222.3 73.91 222.3 73.33C222.3 72.75 222.387 72.2533 222.56 71.84C222.74 71.42 222.994 71.1 223.32 70.88C223.647 70.6533 224.034 70.54 224.48 70.54C224.854 70.54 225.177 70.6267 225.45 70.8C225.73 70.9667 225.934 71.17 226.06 71.41V68.9H227.24V76H226.12L226.09 75.17C225.95 75.45 225.74 75.68 225.46 75.86C225.187 76.0333 224.86 76.12 224.48 76.12ZM224.76 75.06C225.02 75.06 225.247 74.99 225.44 74.85C225.64 74.71 225.794 74.5133 225.9 74.26C226.007 74 226.06 73.69 226.06 73.33C226.06 72.9633 226.007 72.6533 225.9 72.4C225.794 72.14 225.64 71.9433 225.44 71.81C225.247 71.67 225.014 71.6 224.74 71.6C224.36 71.6 224.064 71.7533 223.85 72.06C223.637 72.36 223.53 72.7833 223.53 73.33C223.53 73.8767 223.637 74.3033 223.85 74.61C224.064 74.91 224.367 75.06 224.76 75.06ZM235.843 76.16C235.323 76.16 234.869 76.0567 234.483 75.85C234.103 75.6433 233.803 75.3533 233.583 74.98C233.363 74.6 233.233 74.1533 233.193 73.64L234.453 73.57C234.499 73.8967 234.583 74.17 234.703 74.39C234.829 74.6033 234.993 74.7667 235.193 74.88C235.399 74.9867 235.636 75.04 235.903 75.04C236.156 75.04 236.369 75.0067 236.543 74.94C236.723 74.8733 236.859 74.7733 236.953 74.64C237.046 74.5067 237.093 74.3467 237.093 74.16C237.093 73.96 237.046 73.7867 236.953 73.64C236.859 73.4933 236.693 73.3567 236.453 73.23C236.213 73.1033 235.869 72.98 235.423 72.86C234.943 72.7333 234.549 72.5867 234.243 72.42C233.936 72.2533 233.709 72.0467 233.563 71.8C233.416 71.5467 233.343 71.23 233.343 70.85C233.343 70.4233 233.436 70.0533 233.623 69.74C233.816 69.42 234.093 69.1733 234.453 69C234.819 68.8267 235.256 68.74 235.763 68.74C236.263 68.74 236.689 68.8367 237.043 69.03C237.396 69.2167 237.673 69.4867 237.873 69.84C238.079 70.1867 238.206 70.6 238.253 71.08L236.983 71.14C236.949 70.88 236.879 70.6567 236.773 70.47C236.673 70.2767 236.533 70.1267 236.353 70.02C236.179 69.9133 235.966 69.86 235.713 69.86C235.373 69.86 235.103 69.9467 234.903 70.12C234.703 70.2867 234.603 70.5067 234.603 70.78C234.603 70.9733 234.646 71.1333 234.733 71.26C234.826 71.3867 234.983 71.5 235.203 71.6C235.423 71.7 235.733 71.8 236.133 71.9C236.686 72.0467 237.123 72.22 237.443 72.42C237.769 72.62 238.003 72.86 238.143 73.14C238.283 73.42 238.353 73.75 238.353 74.13C238.353 74.5367 238.249 74.8933 238.043 75.2C237.836 75.5067 237.546 75.7433 237.173 75.91C236.799 76.0767 236.356 76.16 235.843 76.16ZM241.919 76C241.345 76 240.922 75.87 240.649 75.61C240.375 75.3433 240.239 74.94 240.239 74.4V69.41H241.419V74.31C241.419 74.5567 241.479 74.74 241.599 74.86C241.719 74.98 241.895 75.04 242.129 75.04H243.449V76H241.919ZM238.629 71.62V70.66H243.449V71.62H238.629ZM245.825 76.12C245.492 76.12 245.192 76.06 244.925 75.94C244.658 75.82 244.445 75.65 244.285 75.43C244.125 75.2033 244.045 74.9367 244.045 74.63C244.045 74.1767 244.185 73.8267 244.465 73.58C244.752 73.3267 245.162 73.1433 245.695 73.03L247.365 72.68C247.365 72.3067 247.285 72.0233 247.125 71.83C246.972 71.63 246.728 71.53 246.395 71.53C246.088 71.53 245.852 71.6033 245.685 71.75C245.518 71.8967 245.408 72.09 245.355 72.33L244.125 72.26C244.225 71.7467 244.472 71.3333 244.865 71.02C245.265 70.7 245.768 70.54 246.375 70.54C247.102 70.54 247.645 70.7333 248.005 71.12C248.365 71.5067 248.545 72.0467 248.545 72.74V74.73C248.545 74.8633 248.572 74.9567 248.625 75.01C248.678 75.0567 248.752 75.08 248.845 75.08H249.105V76C249.065 76.0067 248.998 76.0133 248.905 76.02C248.818 76.0333 248.728 76.04 248.635 76.04C248.382 76.04 248.165 75.9967 247.985 75.91C247.812 75.8233 247.678 75.6933 247.585 75.52C247.492 75.34 247.442 75.12 247.435 74.86H247.585C247.552 75.1 247.455 75.3167 247.295 75.51C247.135 75.6967 246.928 75.8467 246.675 75.96C246.428 76.0667 246.145 76.12 245.825 76.12ZM246.035 75.2C246.322 75.2 246.565 75.15 246.765 75.05C246.965 74.9433 247.115 74.7967 247.215 74.61C247.315 74.4167 247.365 74.1867 247.365 73.92V73.56L246.035 73.84C245.748 73.8933 245.548 73.98 245.435 74.1C245.328 74.2133 245.275 74.3667 245.275 74.56C245.275 74.76 245.342 74.9167 245.475 75.03C245.608 75.1433 245.795 75.2 246.035 75.2ZM252.711 76C252.138 76 251.714 75.87 251.441 75.61C251.168 75.3433 251.031 74.94 251.031 74.4V69.41H252.211V74.31C252.211 74.5567 252.271 74.74 252.391 74.86C252.511 74.98 252.688 75.04 252.921 75.04H254.241V76H252.711ZM249.421 71.62V70.66H254.241V71.62H249.421ZM257.407 76.12C256.907 76.12 256.467 76.0067 256.087 75.78C255.714 75.5533 255.424 75.23 255.217 74.81C255.01 74.39 254.907 73.8967 254.907 73.33C254.907 72.77 255.01 72.2833 255.217 71.87C255.424 71.45 255.71 71.1233 256.077 70.89C256.45 70.6567 256.887 70.54 257.387 70.54C257.867 70.54 258.29 70.6533 258.657 70.88C259.03 71.1067 259.32 71.43 259.527 71.85C259.74 72.27 259.847 72.77 259.847 73.35V73.66H256.127C256.16 74.1133 256.29 74.46 256.517 74.7C256.75 74.94 257.054 75.06 257.427 75.06C257.714 75.06 257.95 74.9933 258.137 74.86C258.33 74.72 258.464 74.54 258.537 74.32L259.747 74.41C259.58 74.9433 259.297 75.3633 258.897 75.67C258.497 75.97 258 76.12 257.407 76.12ZM256.137 72.8H258.567C258.534 72.3933 258.41 72.0933 258.197 71.9C257.984 71.7 257.71 71.6 257.377 71.6C257.044 71.6 256.767 71.7033 256.547 71.91C256.334 72.11 256.197 72.4067 256.137 72.8ZM262.823 76.12C262.323 76.12 261.903 76.04 261.563 75.88C261.223 75.72 260.96 75.5033 260.773 75.23C260.586 74.9567 260.48 74.6533 260.453 74.32L261.633 74.27C261.686 74.5233 261.81 74.7267 262.003 74.88C262.196 75.0267 262.473 75.1 262.833 75.1C263.166 75.1 263.416 75.0567 263.583 74.97C263.756 74.8767 263.843 74.74 263.843 74.56C263.843 74.4467 263.813 74.35 263.753 74.27C263.7 74.19 263.59 74.1233 263.423 74.07C263.256 74.01 263.01 73.9467 262.683 73.88C262.15 73.7733 261.73 73.65 261.423 73.51C261.116 73.37 260.896 73.1933 260.763 72.98C260.636 72.7667 260.573 72.5067 260.573 72.2C260.573 71.8867 260.653 71.6067 260.813 71.36C260.973 71.1067 261.21 70.9067 261.523 70.76C261.843 70.6133 262.236 70.54 262.703 70.54C263.21 70.54 263.623 70.6233 263.943 70.79C264.263 70.9567 264.506 71.1733 264.673 71.44C264.846 71.7067 264.953 71.9933 264.993 72.3L263.803 72.36C263.77 72.2067 263.706 72.07 263.613 71.95C263.52 71.83 263.396 71.7367 263.243 71.67C263.09 71.5967 262.913 71.56 262.713 71.56C262.386 71.56 262.15 71.6233 262.003 71.75C261.856 71.8767 261.783 72.0267 261.783 72.2C261.783 72.34 261.82 72.4567 261.893 72.55C261.973 72.6367 262.103 72.71 262.283 72.77C262.463 72.83 262.713 72.89 263.033 72.95C263.56 73.05 263.97 73.1667 264.263 73.3C264.556 73.4333 264.76 73.6 264.873 73.8C264.993 74 265.053 74.25 265.053 74.55C265.053 74.8767 264.963 75.1567 264.783 75.39C264.603 75.6233 264.346 75.8033 264.013 75.93C263.68 76.0567 263.283 76.12 262.823 76.12Z" fill="#DFDFDF"/>
</g>
</g>
</g>
<defs>
<filter id="filter0_dddd_19_2" x="-46.4931" y="-10.7293" width="607.986" height="507.847" filterUnits="userSpaceOnUse" color-interpolation-filters="sRGB">
<feFlood flood-opacity="0" result="BackgroundImageFix"/>
<feColorMatrix in="SourceAlpha" type="matrix" values="0 0 0 0 0 0 0 0 0 0 0 0 0 0 0 0 0 0 127 0" result="hardAlpha"/>
<feOffset dy="7.15278"/>
<feGaussianBlur stdDeviation="7.15278"/>
<feColorMatrix type="matrix" values="0 0 0 0 0.117647 0 0 0 0 0.160784 0 0 0 0 0.231373 0 0 0 0.08 0"/>
<feBlend mode="normal" in2="BackgroundImageFix" result="effect1_dropShadow_19_2"/>
<feColorMatrix in="SourceAlpha" type="matrix" values="0 0 0 0 0 0 0 0 0 0 0 0 0 0 0 0 0 0 127 0" result="hardAlpha"/>
<feOffset dy="28.6111"/>
<feGaussianBlur stdDeviation="14.3056"/>
<feColorMatrix type="matrix" values="0 0 0 0 0.117647 0 0 0 0 0.160784 0 0 0 0 0.231373 0 0 0 0.07 0"/>
<feBlend mode="normal" in2="effect1_dropShadow_19_2" result="effect2_dropShadow_19_2"/>
<feColorMatrix in="SourceAlpha" type="matrix" values="0 0 0 0 0 0 0 0 0 0 0 0 0 0 0 0 0 0 127 0" result="hardAlpha"/>
<feOffset dy="60.7986"/>
<feGaussianBlur stdDeviation="17.8819"/>
<feColorMatrix type="matrix" values="0 0 0 0 0.117647 0 0 0 0 0.160784 0 0 0 0 0.231373 0 0 0 0.04 0"/>
<feBlend mode="normal" in2="effect2_dropShadow_19_2" result="effect3_dropShadow_19_2"/>
<feColorMatrix in="SourceAlpha" type="matrix" values="0 0 0 0 0 0 0 0 0 0 0 0 0 0 0 0 0 0 127 0" result="hardAlpha"/>
<feOffset dy="107.292"/>
<feGaussianBlur stdDeviation="21.4583"/>
<feColorMatrix type="matrix" values="0 0 0 0 0.117647 0 0 0 0 0.160784 0 0 0 0 0.231373 0 0 0 0.01 0"/>
<feBlend mode="normal" in2="effect3_dropShadow_19_2" result="effect4_dropShadow_19_2"/>
<feBlend mode="normal" in="SourceGraphic" in2="effect4_dropShadow_19_2" result="shape"/>
</filter>
<filter id="filter1_f_19_2" x="-3.57643" y="117.145" width="522.153" height="240.494" filterUnits="userSpaceOnUse" color-interpolation-filters="sRGB">
<feFlood flood-opacity="0" result="BackgroundImageFix"/>
<feBlend mode="normal" in="SourceGraphic" in2="BackgroundImageFix" result="shape"/>
<feGaussianBlur stdDeviation="7.15278" result="effect1_foregroundBlur_19_2"/>
</filter>
<filter id="filter2_f_19_2" x="-3.57633" y="71.4578" width="522.153" height="314.792" filterUnits="userSpaceOnUse" color-interpolation-filters="sRGB">
<feFlood flood-opacity="0" result="BackgroundImageFix"/>
<feBlend mode="normal" in="SourceGraphic" in2="BackgroundImageFix" result="shape"/>
<feGaussianBlur stdDeviation="21.4583" result="effect1_foregroundBlur_19_2"/>
</filter>
<filter id="filter3_f_19_2" x="-75.1042" y="6.18987" width="665.208" height="422.977" filterUnits="userSpaceOnUse" color-interpolation-filters="sRGB">
<feFlood flood-opacity="0" result="BackgroundImageFix"/>
<feBlend mode="normal" in="SourceGraphic" in2="BackgroundImageFix" result="shape"/>
<feGaussianBlur stdDeviation="42.9167" result="effect1_foregroundBlur_19_2"/>
</filter>
<filter id="filter4_i_19_2" x="0" y="130.743" width="515" height="212.591" filterUnits="userSpaceOnUse" color-interpolation-filters="sRGB">
<feFlood flood-opacity="0" result="BackgroundImageFix"/>
<feBlend mode="normal" in="SourceGraphic" in2="BackgroundImageFix" result="shape"/>
<feColorMatrix in="SourceAlpha" type="matrix" values="0 0 0 0 0 0 0 0 0 0 0 0 0 0 0 0 0 0 127 0" result="hardAlpha"/>
<feOffset dy="3.57639"/>
<feComposite in2="hardAlpha" operator="arithmetic" k2="-1" k3="1"/>
<feColorMatrix type="matrix" values="0 0 0 0 1 0 0 0 0 1 0 0 0 0 1 0 0 0 0.6 0"/>
<feBlend mode="normal" in2="shape" result="effect1_innerShadow_19_2"/>
</filter>
<filter id="filter5_f_19_2" x="-3.57643" y="-14.3056" width="522.153" height="240.494" filterUnits="userSpaceOnUse" color-interpolation-filters="sRGB">
<feFlood flood-opacity="0" result="BackgroundImageFix"/>
<feBlend mode="normal" in="SourceGraphic" in2="BackgroundImageFix" result="shape"/>
<feGaussianBlur stdDeviation="7.15278" result="effect1_foregroundBlur_19_2"/>
</filter>
<filter id="filter6_f_19_2" x="-3.57633" y="-42.9167" width="522.153" height="314.792" filterUnits="userSpaceOnUse" color-interpolation-filters="sRGB">
<feFlood flood-opacity="0" result="BackgroundImageFix"/>
<feBlend mode="normal" in="SourceGraphic" in2="BackgroundImageFix" result="shape"/>
<feGaussianBlur stdDeviation="21.4583" result="effect1_foregroundBlur_19_2"/>
</filter>
<filter id="filter7_f_19_2" x="-75.1042" y="-85.8333" width="665.208" height="422.977" filterUnits="userSpaceOnUse" color-interpolation-filters="sRGB">
<feFlood flood-opacity="0" result="BackgroundImageFix"/>
<feBlend mode="normal" in="SourceGraphic" in2="BackgroundImageFix" result="shape"/>
<feGaussianBlur stdDeviation="42.9167" result="effect1_foregroundBlur_19_2"/>
</filter>
<filter id="filter8_f_19_2" x="-7.15281" y="-35.7639" width="529.306" height="311.532" filterUnits="userSpaceOnUse" color-interpolation-filters="sRGB">
<feFlood flood-opacity="0" result="BackgroundImageFix"/>
<feBlend mode="normal" in="SourceGraphic" in2="BackgroundImageFix" result="shape"/>
<feGaussianBlur stdDeviation="17.8819" result="effect1_foregroundBlur_19_2"/>
</filter>
<filter id="filter9_f_19_2" x="-7.15272" y="-17.882" width="529.306" height="253.252" filterUnits="userSpaceOnUse" color-interpolation-filters="sRGB">
<feFlood flood-opacity="0" result="BackgroundImageFix"/>
<feBlend mode="normal" in="SourceGraphic" in2="BackgroundImageFix" result="shape"/>
<feGaussianBlur stdDeviation="7.15278" result="effect1_foregroundBlur_19_2"/>
</filter>
<filter id="filter10_i_19_2" x="0" y="0" width="515" height="212.59" filterUnits="userSpaceOnUse" color-interpolation-filters="sRGB">
<feFlood flood-opacity="0" result="BackgroundImageFix"/>
<feBlend mode="normal" in="SourceGraphic" in2="BackgroundImageFix" result="shape"/>
<feColorMatrix in="SourceAlpha" type="matrix" values="0 0 0 0 0 0 0 0 0 0 0 0 0 0 0 0 0 0 127 0" result="hardAlpha"/>
<feOffset dy="-3.57639"/>
<feComposite in2="hardAlpha" operator="arithmetic" k2="-1" k3="1"/>
<feColorMatrix type="matrix" values="0 0 0 0 1 0 0 0 0 1 0 0 0 0 1 0 0 0 0.5 0"/>
<feBlend mode="normal" in2="shape" result="effect1_innerShadow_19_2"/>
</filter>
<filter id="filter11_f_19_2" x="-57.2222" y="-57.2222" width="629.444" height="457.778" filterUnits="userSpaceOnUse" color-interpolation-filters="sRGB">
<feFlood flood-opacity="0" result="BackgroundImageFix"/>
<feBlend mode="normal" in="SourceGraphic" in2="BackgroundImageFix" result="shape"/>
<feGaussianBlur stdDeviation="14.3056" result="effect1_foregroundBlur_19_2"/>
</filter>
<filter id="filter12_i_19_2" x="195.46" y="35.74" width="123.734" height="42.42" filterUnits="userSpaceOnUse" color-interpolation-filters="sRGB">
<feFlood flood-opacity="0" result="BackgroundImageFix"/>
<feBlend mode="normal" in="SourceGraphic" in2="BackgroundImageFix" result="shape"/>
<feColorMatrix in="SourceAlpha" type="matrix" values="0 0 0 0 0 0 0 0 0 0 0 0 0 0 0 0 0 0 127 0" result="hardAlpha"/>
<feOffset dy="2"/>
<feGaussianBlur stdDeviation="2"/>
<feComposite in2="hardAlpha" operator="arithmetic" k2="-1" k3="1"/>
<feColorMatrix type="matrix" values="0 0 0 0 0 0 0 0 0 0 0 0 0 0 0 0 0 0 0.1 0"/>
<feBlend mode="normal" in2="shape" result="effect1_innerShadow_19_2"/>
</filter>
<linearGradient id="paint0_linear_19_2" x1="257.5" y1="0" x2="257.5" y2="343.333" gradientUnits="userSpaceOnUse">
<stop offset="0.130208" stop-color="#EEF0F1"/>
<stop offset="0.848958" stop-color="#F9FAFA"/>
</linearGradient>
<linearGradient id="paint1_linear_19_2" x1="257.5" y1="0" x2="257.5" y2="343.333" gradientUnits="userSpaceOnUse">
<stop stop-color="#475569" stop-opacity="0.06"/>
<stop offset="1" stop-color="#475569" stop-opacity="0.04"/>
</linearGradient>
<linearGradient id="paint2_linear_19_2" x1="257.5" y1="121.597" x2="257.5" y2="343.333" gradientUnits="userSpaceOnUse">
<stop offset="0.524194" stop-color="#F4F5F6"/>
<stop offset="1" stop-color="#EEF0F1"/>
</linearGradient>
<linearGradient id="paint3_linear_19_2" x1="257.5" y1="0" x2="257.5" y2="221.736" gradientUnits="userSpaceOnUse">
<stop offset="0.25" stop-color="#FAFAFB"/>
<stop offset="1" stop-color="#F4F5F6"/>
</linearGradient>
<linearGradient id="paint4_linear_19_2" x1="257.5" y1="3.20871" x2="257.5" y2="343.333" gradientUnits="userSpaceOnUse">
<stop stop-color="#F9FAFA"/>
<stop offset="0.693396" stop-color="#EEF0F1"/>
</linearGradient>
<clipPath id="clip0_19_2">
<rect width="515" height="343.333" fill="white"/>
</clipPath>
</defs>
</svg>
